<svg viewBox="0 0 48 28" xmlns="http://www.w3.org/2000/svg">
    <style>
        <![CDATA[:root>svg{display:none}:root>svg:target{display:block}]]>
    </style>
    <svg viewBox="0 0 8 14" id="facebook" xmlns="http://www.w3.org/2000/svg">
        <path d="M5.457 14V7.7h2.186L8 4.9H5.457V3.536c0-.72.021-1.436 1.173-1.436h1.166V.098C7.796.068 6.794 0 5.78 0 3.664 0 2.339 1.16 2.339 3.29V4.9H0v2.8h2.339V14h3.118z"/>
    </svg>
    <svg viewBox="0 0 24 24" id="google" xmlns="http://www.w3.org/2000/svg">
        <path d="M17.393 11.302h-5.766c0 .6 0 1.8-.004 2.399h3.341c-.128.6-.582 1.44-1.223 1.862l-.002.003c-.853.563-1.979.69-2.814.523a3.71 3.71 0 0 1-2.768-2.417c.003-.002.005-.018.007-.02-.264-.748-.264-1.75 0-2.35h-.001c.34-1.102 1.407-2.107 2.719-2.383 1.055-.223 2.245.019 3.12.838.117-.114 1.612-1.574 1.724-1.692-2.991-2.709-7.78-1.756-9.572 1.742l-.004.006a5.86 5.86 0 0 0 .007 5.379l-.007.005a6.108 6.108 0 0 0 3.888 3.099c1.807.473 4.106.15 5.646-1.244l.002.002c1.305-1.175 2.117-3.177 1.707-5.752"/>
    </svg>
    <svg viewBox="0 0 48 28" id="path" xmlns="http://www.w3.org/2000/svg">
        <path d="M3.479 24.568 19.278 10.61l7.58 7.964L44.332 3.54l-.547 8.995.547-8.995h-9.987" stroke="#fff" stroke-width="5.363" stroke-linecap="round" stroke-linejoin="round"/>
    </svg>
    <svg viewBox="0 0 24 24" id="twitter" xmlns="http://www.w3.org/2000/svg">
        <path d="M9.403 18c5.283 0 8.173-4.617 8.173-8.62 0-.132 0-.263-.009-.393A6.022 6.022 0 0 0 19 7.419a5.49 5.49 0 0 1-1.65.477 3.02 3.02 0 0 0 1.264-1.677 5.579 5.579 0 0 1-1.825.736c-1.087-1.22-2.907-1.279-4.064-.132-.745.74-1.062 1.844-.83 2.896-2.31-.123-4.462-1.273-5.92-3.166-.763 1.385-.373 3.155.89 4.045a2.74 2.74 0 0 1-1.305-.38v.04c0 1.441.965 2.683 2.304 2.969-.422.122-.866.14-1.296.052.376 1.234 1.455 2.08 2.683 2.104a5.575 5.575 0 0 1-3.567 1.3A5.597 5.597 0 0 1 5 16.639a7.828 7.828 0 0 0 4.403 1.359"/>
    </svg>
</svg>
